<svg width="491" height="458" viewBox="0 0 491 458" fill="none" xmlns="http://www.w3.org/2000/svg">
<rect width="491" height="458" fill="white"/>
<g id="undraw_compose_music_re_wpiw 1" clip-path="url(#clip0_0_1)">
<path id="Vector" d="M396.707 455.947L395.173 455.071L394.802 453.457L395.173 455.071L393.385 455.258C393.357 455.106 393.26 454.759 393.113 454.214C392.312 451.232 389.872 442.157 387.836 427.864C386.415 417.886 385.611 407.629 385.445 397.371C385.279 387.098 385.813 379.32 386.24 373.069C386.564 368.354 386.956 363.864 387.341 359.491C388.366 347.807 389.333 336.77 388.614 324.551C388.455 321.823 388.121 316.145 384.48 310.103C382.369 306.599 379.46 303.488 375.834 300.86L378.089 298.278C382.091 301.182 385.309 304.628 387.654 308.519C391.69 315.218 392.054 321.404 392.229 324.377C392.961 336.812 391.984 347.955 390.948 359.752C390.566 364.109 390.174 368.579 389.852 373.275C389.428 379.468 388.9 387.178 389.064 397.32C389.227 407.455 390.022 417.587 391.423 427.438C393.434 441.551 395.839 450.491 396.629 453.429C397.05 454.997 397.138 455.325 396.707 455.947V455.947Z" fill="#3B6A46"/>
<path id="Let&#226;&#128;&#153;s Party" d="M382.185 182L383.634 173.273H386.003L384.878 180.091H388.407L388.083 182H382.185ZM392.194 182.119C391.495 182.119 390.915 181.986 390.455 181.719C389.995 181.449 389.671 181.062 389.484 180.56C389.296 180.054 389.262 179.449 389.381 178.744C389.495 178.068 389.729 177.477 390.085 176.972C390.442 176.466 390.893 176.072 391.435 175.791C391.981 175.51 392.592 175.369 393.268 175.369C393.762 175.369 394.195 175.446 394.567 175.599C394.942 175.753 395.248 175.976 395.484 176.268C395.719 176.561 395.879 176.915 395.961 177.33C396.046 177.741 396.046 178.207 395.961 178.727L395.876 179.273H390.029L390.234 177.977H393.915C393.944 177.79 393.925 177.625 393.86 177.483C393.798 177.338 393.697 177.226 393.558 177.146C393.421 177.064 393.256 177.023 393.063 177.023C392.87 177.023 392.688 177.064 392.518 177.146C392.35 177.229 392.207 177.344 392.087 177.491C391.971 177.639 391.893 177.812 391.853 178.011L391.597 179.375C391.563 179.585 391.576 179.773 391.636 179.938C391.695 180.102 391.799 180.232 391.947 180.325C392.094 180.419 392.285 180.466 392.518 180.466C392.677 180.466 392.827 180.445 392.969 180.402C393.114 180.357 393.242 180.291 393.353 180.206C393.467 180.118 393.558 180.011 393.626 179.886H395.773C395.62 180.341 395.377 180.736 395.045 181.071C394.715 181.403 394.309 181.662 393.826 181.847C393.346 182.028 392.802 182.119 392.194 182.119ZM401.37 175.455L401.08 177.159H396.767L397.057 175.455H401.37ZM398.148 173.886H400.5L399.503 179.895C399.489 179.986 399.492 180.062 399.512 180.125C399.532 180.185 399.571 180.23 399.631 180.261C399.694 180.29 399.776 180.304 399.878 180.304C399.946 180.304 400.03 180.295 400.13 180.278C400.229 180.259 400.304 180.244 400.355 180.236L400.424 181.889C400.304 181.923 400.144 181.962 399.942 182.004C399.743 182.05 399.512 182.08 399.248 182.094C398.696 182.119 398.248 182.061 397.901 181.919C397.557 181.777 397.319 181.555 397.185 181.254C397.054 180.95 397.032 180.571 397.117 180.116L398.148 173.886ZM404.888 173.273L404.718 174.295C404.673 174.574 404.57 174.852 404.411 175.131C404.252 175.406 404.067 175.663 403.857 175.902C403.647 176.138 403.44 176.335 403.235 176.494L402.332 176C402.482 175.795 402.629 175.558 402.771 175.288C402.913 175.018 403.016 174.687 403.082 174.295L403.252 173.273H404.888ZM410.527 177.585H408.414C408.425 177.449 408.401 177.332 408.341 177.236C408.282 177.139 408.198 177.065 408.09 177.014C407.985 176.963 407.865 176.938 407.732 176.938C407.499 176.938 407.287 176.99 407.097 177.095C406.907 177.197 406.8 177.332 406.777 177.5C406.763 177.565 406.784 177.626 406.841 177.683C406.898 177.74 407.047 177.793 407.289 177.841L408.584 178.08C409.232 178.199 409.703 178.416 409.999 178.732C410.297 179.044 410.405 179.457 410.323 179.972C410.246 180.418 410.05 180.801 409.735 181.122C409.419 181.443 409.019 181.69 408.533 181.864C408.05 182.034 407.516 182.119 406.931 182.119C405.9 182.119 405.127 181.913 404.613 181.501C404.101 181.089 403.868 180.551 403.914 179.886H406.198C406.203 180.099 406.275 180.26 406.411 180.368C406.55 180.473 406.735 180.528 406.965 180.534C407.215 180.543 407.434 180.493 407.621 180.385C407.809 180.274 407.914 180.136 407.936 179.972C407.945 179.878 407.904 179.807 407.813 179.759C407.725 179.71 407.556 179.662 407.306 179.614L406.181 179.409C405.533 179.293 405.061 179.06 404.766 178.71C404.471 178.358 404.368 177.909 404.459 177.364C404.533 176.929 404.709 176.564 404.988 176.268C405.269 175.973 405.638 175.75 406.096 175.599C406.553 175.446 407.081 175.369 407.681 175.369C408.661 175.369 409.402 175.567 409.905 175.962C410.411 176.354 410.618 176.895 410.527 177.585ZM380.38 197L381.829 188.273H385.596C386.244 188.273 386.789 188.401 387.233 188.656C387.676 188.912 387.994 189.271 388.187 189.734C388.38 190.197 388.426 190.739 388.324 191.358C388.221 191.989 387.994 192.533 387.642 192.99C387.292 193.445 386.846 193.795 386.304 194.043C385.764 194.287 385.159 194.409 384.488 194.409H382.238L382.545 192.568H384.318C384.602 192.568 384.852 192.52 385.068 192.423C385.284 192.324 385.458 192.185 385.592 192.006C385.725 191.824 385.812 191.608 385.852 191.358C385.892 191.108 385.873 190.895 385.797 190.719C385.723 190.54 385.595 190.403 385.413 190.31C385.234 190.213 385.005 190.165 384.727 190.165H383.892L382.75 197H380.38ZM389.803 197.102C389.388 197.102 389.032 197.034 388.734 196.898C388.438 196.759 388.222 196.548 388.086 196.267C387.952 195.983 387.923 195.625 387.996 195.193C388.056 194.835 388.168 194.53 388.333 194.277C388.498 194.024 388.702 193.817 388.947 193.655C389.191 193.493 389.465 193.369 389.769 193.284C390.076 193.196 390.4 193.139 390.741 193.114C391.11 193.085 391.41 193.05 391.64 193.007C391.87 192.964 392.042 192.906 392.156 192.832C392.269 192.759 392.337 192.659 392.36 192.534V192.517C392.386 192.347 392.34 192.216 392.224 192.125C392.11 192.034 391.951 191.989 391.746 191.989C391.525 191.989 391.333 192.037 391.171 192.134C391.012 192.23 390.903 192.381 390.843 192.585H388.678C388.769 192.187 388.955 191.821 389.237 191.486C389.521 191.148 389.897 190.878 390.366 190.676C390.837 190.472 391.4 190.369 392.053 190.369C392.519 190.369 392.928 190.425 393.281 190.536C393.633 190.643 393.924 190.795 394.154 190.991C394.387 191.185 394.55 191.412 394.644 191.673C394.741 191.932 394.763 192.213 394.712 192.517L393.962 197H391.763L391.917 196.08H391.866C391.695 196.324 391.504 196.521 391.29 196.672C391.08 196.822 390.85 196.932 390.6 197C390.353 197.068 390.087 197.102 389.803 197.102ZM390.826 195.619C391.002 195.619 391.175 195.582 391.346 195.509C391.516 195.435 391.663 195.328 391.785 195.189C391.907 195.05 391.985 194.881 392.019 194.682L392.104 194.136C392.042 194.162 391.972 194.186 391.896 194.209C391.822 194.229 391.744 194.249 391.661 194.268C391.582 194.288 391.496 194.307 391.406 194.324C391.317 194.341 391.227 194.358 391.133 194.375C390.945 194.403 390.788 194.45 390.66 194.516C390.532 194.578 390.433 194.656 390.362 194.75C390.29 194.841 390.246 194.943 390.229 195.057C390.204 195.236 390.245 195.375 390.353 195.474C390.464 195.571 390.621 195.619 390.826 195.619ZM395.086 197L396.177 190.455H398.461L398.257 191.699H398.325C398.521 191.239 398.767 190.902 399.062 190.689C399.358 190.476 399.68 190.369 400.029 190.369C400.132 190.369 400.23 190.378 400.324 190.395C400.42 190.409 400.515 190.429 400.609 190.455L400.268 192.466C400.157 192.423 400.02 192.393 399.855 192.376C399.69 192.357 399.544 192.347 399.416 192.347C399.189 192.347 398.975 192.399 398.777 192.504C398.581 192.607 398.413 192.751 398.274 192.939C398.137 193.124 398.047 193.341 398.001 193.591L397.439 197H395.086ZM405.553 190.455L405.263 192.159H400.951L401.241 190.455H405.553ZM402.332 188.886H404.684L403.687 194.895C403.673 194.986 403.675 195.062 403.695 195.125C403.715 195.185 403.755 195.23 403.815 195.261C403.877 195.29 403.96 195.304 404.062 195.304C404.13 195.304 404.214 195.295 404.313 195.278C404.413 195.259 404.488 195.244 404.539 195.236L404.607 196.889C404.488 196.923 404.327 196.962 404.126 197.004C403.927 197.05 403.695 197.08 403.431 197.094C402.88 197.119 402.431 197.061 402.085 196.919C401.741 196.777 401.502 196.555 401.369 196.254C401.238 195.95 401.215 195.571 401.3 195.116L402.332 188.886ZM406.453 199.455C406.181 199.455 405.926 199.433 405.691 199.391C405.455 199.351 405.249 199.295 405.073 199.224L405.865 197.554C406.047 197.622 406.215 197.666 406.368 197.686C406.525 197.706 406.662 197.695 406.782 197.652C406.901 197.609 406.999 197.528 407.076 197.409L407.152 197.29L405.985 190.455H408.354L408.652 194.989H408.721L410.553 190.455H413.11L409.547 197.545C409.365 197.906 409.138 198.23 408.865 198.517C408.596 198.807 408.263 199.036 407.868 199.203C407.473 199.371 407.002 199.455 406.453 199.455Z" fill="#E6E065"/>
<g id="music1">
<path id="Vector_2" d="M103.676 15L52.9636 27.553L60.3422 57.5388C57.9563 56.0799 55.0865 55.2271 51.9974 55.2271C43.7145 55.2271 37 61.3458 37 68.8935C37 76.4412 43.7145 82.5598 51.9974 82.5598C60.2803 82.5598 66.9948 76.4412 66.9948 68.8935C66.9948 66.2701 66.1693 63.8281 64.7631 61.7469L58.913 37.9732L102.662 25.4394L106.663 43.1485C104.262 41.6598 101.363 40.7881 98.2394 40.7881C89.9565 40.7881 83.2419 46.9068 83.2419 54.4545C83.2419 62.0022 89.9566 68.1208 98.2394 68.1208C106.522 68.1208 113.237 62.0022 113.237 54.4545C113.237 51.8031 112.395 49.3365 110.961 47.2411L103.676 15V15Z" fill="#A0616A"/>
</g>
<g id="music2 ">
<path id="Vector_3" d="M290.842 14C282.645 14 276 20.0551 276 27.5244C276 29.6359 276.546 31.6264 277.493 33.407L285.964 65.2477L290.772 64.1856L284.238 39.623C286.229 40.5273 288.466 41.0489 290.842 41.0489C299.039 41.0489 305.683 34.9938 305.683 27.5244C305.683 20.0551 299.039 14 290.842 14V14Z" fill="#A0616A"/>
</g>
<g id="music3">
<path id="Vector_4" d="M417.346 48.6473L408.937 18L403.832 19.0934L410.409 43.0653C408.386 42.2306 406.138 41.751 403.758 41.751C395.055 41.751 388 47.9843 388 55.6736C388 63.3628 395.055 69.5962 403.758 69.5962C412.461 69.5962 419.516 63.3628 419.516 55.6736C419.516 53.1074 418.717 50.7116 417.346 48.6474V48.6473Z" fill="#A0616A"/>
</g>
<g id="lady">
<g id="rightleg">
<path id="Vector_5" d="M214.645 451.565L203.109 451.564L197.622 411.016L214.648 411.018L214.645 451.565Z" fill="#A0616A"/>
<path id="Vector_6" d="M175.122 451.326C174.762 451.878 174.573 453.657 174.573 454.298C174.573 456.268 176.326 457.866 178.488 457.866H214.214C215.689 457.866 216.885 456.776 216.885 455.432V454.076C216.885 454.076 218.652 450.003 215.014 444.982C215.014 444.982 210.491 448.913 203.734 442.756L201.741 439.466L187.317 449.079L179.322 449.976C177.572 450.172 176.021 449.946 175.122 451.326H175.122V451.326Z" fill="#2F2E41"/>
</g>
<g id="leftleg">
<path id="Vector_7" d="M162.958 451.565L151.422 451.564L145.934 411.016L162.96 411.018L162.958 451.565Z" fill="#A0616A"/>
<path id="Vector_8" d="M123.434 451.326C123.075 451.878 122.885 453.657 122.885 454.298C122.885 456.268 124.638 457.866 126.801 457.866H162.527C164.002 457.866 165.198 456.776 165.198 455.432V454.076C165.198 454.076 166.965 450.003 163.326 444.982C163.326 444.982 158.804 448.913 152.047 442.756L150.054 439.466L135.629 449.079L127.634 449.976C125.885 450.172 124.334 449.946 123.434 451.326H123.434V451.326Z" fill="#2F2E41"/>
</g>
<path id="Vector_9" d="M215.636 197.182L226.376 222.262L217.985 422.59H194.491L173.346 241.836L168.312 423.201L145.489 422.59L120.652 221.344L137.098 203.299L215.636 197.182Z" fill="#3C2E41"/>
<path id="Vector_10" d="M164.956 54.9649L193.149 53.1299L201.875 65.9753L228.054 72.7039L218.321 134.79L228.726 227.461C228.726 227.461 191.135 222.568 188.45 232.355C185.765 242.142 119.981 222.568 119.981 222.568L142.468 159.258L140.454 109.711L134.413 80.9617L161.935 69.3396L164.956 54.9649V54.9649Z" fill="#E6E6E6"/>
<path id="Vector_11" d="M165.946 168.433C169.66 168.437 173.114 166.486 174.558 163.367C175.65 161.008 175.547 158.746 174.73 156.806C174.993 156.706 175.254 156.603 175.523 156.515C175.127 156.369 174.743 156.204 174.359 156.039C173.02 153.608 170.455 151.845 167.399 151.416C163.615 147.722 161.288 142.771 161.264 137.323C161.214 126.094 171.21 116.715 183.529 116.446C183.626 116.444 183.722 116.442 183.819 116.441C189.335 116.383 194.339 119.195 197.134 123.529C198.765 126.058 201.779 127.756 205.231 127.756C207.875 127.756 210.259 126.76 211.964 125.158C215.677 121.668 220.327 119.072 225.59 118.275C229.046 117.752 232.623 117.554 236.282 117.72C261.334 118.855 282.887 139.087 283.422 161.939C284.018 187.39 261.555 208.193 233.76 208.193C219.297 208.193 206.285 202.557 197.21 193.566C193.18 189.575 187.535 187.339 181.583 187.395C181.523 187.395 181.462 187.395 181.402 187.395C171.763 187.395 163.949 180.275 163.949 171.492C163.949 171.004 163.975 170.523 164.025 170.048C164.118 169.16 164.966 168.432 165.946 168.433L165.946 168.433Z" fill="#FD64AD"/>
<path id="Vector_12" d="M83.3969 128.062L81.3831 126.227C81.3831 126.227 72.6567 122.556 72.6567 121.945C72.6567 121.562 59.7707 117.585 50.1298 114.662C44.7455 113.03 39.0593 116.26 38.2926 121.383L37.0845 129.456C36.3621 134.284 40.3592 138.629 45.7015 138.824L69.3003 139.684L80.7118 137.237L83.3969 128.062V128.062Z" fill="#FD64AD"/>
<path id="Vector_13" d="M150.933 69.4156L159.25 65.2191L162.857 132.343L161.599 140.601C161.599 140.601 140.602 87.8423 150.933 69.4156H150.933Z" fill="#3F3D56"/>
<g id="head">
<path id="Vector_14" d="M161.599 40.8961L166.574 44.515L160.928 24.9922C160.928 24.9922 176.703 24.6863 178.045 16.7344C178.045 16.7344 190.464 16.4285 193.82 16.4285C197.176 16.4285 198.691 36.6658 198.691 36.6658C198.691 36.6658 205.231 20.0987 198.519 11.535C191.806 2.9714 194.155 8.17076 192.813 5.11232C191.47 2.05388 177.71 -0.75893 168.983 2.35972C160.257 5.47837 159.921 9.92394 157.236 9.96488C154.551 10.0058 145.153 22.2396 153.88 32.0266C162.606 41.8136 161.599 40.8961 161.599 40.8961V40.8961Z" fill="#2F2E41"/>
<path id="Vector_15" d="M179.388 48.5422C190.88 48.5422 200.197 40.0525 200.197 29.5798C200.197 19.1072 190.88 10.6175 179.388 10.6175C167.895 10.6175 158.578 19.1072 158.578 29.5798C158.578 40.0525 167.895 48.5422 179.388 48.5422Z" fill="#A0616A"/>
</g>
<g id="lefthand">
<path id="Vector_16" d="M102.365 165.669L97.0208 179.903L112.46 187.243L124.207 179.903L131.591 164.305L109.775 158.494" fill="#E6E6E6"/>
</g>
<path id="Vector_17" d="M143.338 77.4984C143.338 77.4984 120.872 77.1925 117.841 85.7562C114.809 94.3198 104.74 153.654 104.74 153.654L97.0208 179.65L131.591 164.052L124.207 153.67L148.373 111.447L143.338 77.4984H143.338Z" fill="#E6E6E6"/>
<g id="strings">
<path id="Vector_18" d="M248.528 154.976L81.3831 126.227L80.7118 137.237L246.514 173.327L248.528 154.976Z" fill="#040002"/>
<path id="Vector_19" d="M248.192 158.34L248.591 156.816L81.3392 127.679L81.0475 129.591L248.192 158.34Z" fill="#FD64AD"/>
<path id="Vector_20" d="M246.98 168.729L246.85 166.292L80.7833 135.087L80.6404 135.684L246.98 168.729Z" fill="#FD64AD"/>
<path id="Vector_21" d="M247.809 161.234L248.192 159.564L81.1573 130.695L81.0475 132.649L247.809 161.234Z" fill="#FD64AD"/>
<path id="Vector_22" d="M247.426 164.701L247.521 162.01L81.0262 132.891L81.0475 134.484L247.426 164.701Z" fill="#FD64AD"/>
<path id="Vector_23" d="M246.977 171.171L246.85 169.351L81.033 136.096L80.8842 136.692L246.977 171.171Z" fill="#FD64AD"/>
</g>
<g id="leftarm">
<path id="Vector_24" d="M134.087 138.87C132.257 141.212 131.159 143.737 130.816 146.039L111.835 167.349L123.227 175.282L141.255 152.811C143.53 151.763 145.789 149.992 147.619 147.649C151.8 142.298 152.16 135.995 148.423 133.571C144.687 131.146 138.268 133.519 134.087 138.87L134.087 138.87Z" fill="#A0616A"/>
</g>
<g id="righthand">
<path id="Vector_25" d="M225.173 165.331C227.639 163.538 229.457 161.385 230.481 159.258L255.161 143.526L246.603 133.044L222.488 150.13C219.985 150.568 217.278 151.705 214.812 153.499C209.177 157.596 206.929 163.565 209.79 166.833C212.651 170.1 219.538 169.428 225.173 165.331V165.331Z" fill="#A0616A"/>
</g>
<path id="Vector_26" d="M217.314 76.6799C217.314 76.6799 223.355 67.5045 229.397 73.0097C234.177 77.366 260.394 105.086 271.129 116.467C274.089 119.605 275.714 123.604 275.714 127.742C275.714 134.143 271.836 140.022 265.631 143.024L232.082 159.258L222.684 146.412L251.549 127.45L207.245 105.429L217.314 76.6798V76.6799Z" fill="#E6E6E6"/>
</g>
<g id="eclipse">
<path id="Ellipse 1" d="M448 186.5C448 225.436 423.376 257 393 257C362.624 257 338 225.436 338 186.5C338 147.564 362.624 116 393 116C423.376 116 448 147.564 448 186.5Z" fill="#D9D9D9" fill-opacity="0.24"/>
</g>
<g id="flower">
<path id="Vector_27" d="M488.644 336.803C487.425 334.93 482.15 336.936 481.18 335.235C480.214 333.541 485.115 330.96 487.915 325.063C488.42 323.999 491.602 317.298 489.246 315.23C484.781 311.31 464.349 327.485 457.199 322.192C455.629 321.031 454.533 318.711 449.784 314.946C447.894 313.449 446.752 312.772 445.646 313.024C444.077 313.381 443.953 315.294 442.271 319.057C439.748 324.699 438.255 324.358 436.785 328.859C435.694 332.201 435.943 334.144 434.659 334.522C432.842 335.058 431.169 331.514 428.866 331.831C426.516 332.155 425.096 336.282 424.647 339.372C423.805 345.17 426.142 348.996 427.437 353.02C428.844 357.392 429.68 364.041 426.429 373.454L394.257 456.056C401.359 439.106 421.925 392.643 430.567 375.377C433.062 370.392 435.816 365.337 441.472 363.341C446.917 361.42 454.396 362.567 463.93 360.474C465.043 360.23 468.133 359.514 468.522 357.857C468.843 356.488 467.026 355.724 467.305 354.442C467.68 352.722 471.254 352.701 475.646 350.716C478.743 349.317 480.672 347.653 482.331 346.222C482.832 345.79 490.267 339.297 488.644 336.803V336.803Z" fill="#3B6A46"/>
<path id="Vector_28" d="M362.068 380.288C360.707 380.293 360.265 383.231 359.07 383.174C357.878 383.117 357.902 380.18 355.534 377.227C355.107 376.694 352.415 373.337 350.622 373.794C347.223 374.66 350.039 388.465 345.125 390.136C344.047 390.503 342.481 390.324 339.083 391.362C337.731 391.775 337.037 392.091 336.854 392.658C336.593 393.462 337.588 394.07 339.129 395.908C341.44 398.664 340.826 399.233 342.826 401.19C344.311 402.642 345.43 403.091 345.263 403.775C345.027 404.742 342.635 404.467 342.142 405.589C341.638 406.733 343.451 408.559 344.986 409.652C347.866 411.701 350.601 411.76 353.142 412.342C355.903 412.974 359.725 414.519 363.857 418.688L399.065 456.911C391.985 448.843 372.893 426.239 366.087 417.393C364.122 414.839 362.194 412.148 362.751 409.043C363.287 406.053 366.063 403.039 367.686 398.171C367.876 397.603 368.382 396.014 367.602 395.362C366.957 394.824 366.021 395.416 365.411 394.921C364.593 394.257 365.613 392.653 365.811 390.116C365.951 388.327 365.611 386.984 365.319 385.829C365.231 385.481 363.879 380.282 362.068 380.288V380.288Z" fill="#3B6A46"/>
<path id="Vector_29" d="M389.218 385.842L388.398 379.172L388.773 378.666C390.506 376.328 391.39 374.045 391.4 371.877C391.402 371.533 391.385 371.188 391.367 370.837C391.296 369.446 391.208 367.716 392.197 365.7C392.752 364.576 394.311 361.974 396.654 362.296C397.285 362.377 397.762 362.641 398.124 362.95C398.177 362.873 398.232 362.795 398.29 362.712C399.02 361.697 399.598 361.262 400.155 360.844C400.582 360.522 401.024 360.19 401.717 359.404C402.021 359.059 402.258 358.757 402.457 358.502C403.063 357.732 403.855 356.815 405.251 356.831C406.743 356.895 407.524 358.019 408.041 358.763C408.966 360.09 409.384 361.046 409.662 361.681C409.763 361.913 409.877 362.174 409.936 362.254C410.416 362.898 414.324 362.296 415.796 362.077C419.102 361.575 421.963 361.14 423.141 363.04C423.986 364.399 423.359 366.196 421.221 368.525C420.554 369.249 419.846 369.8 419.217 370.232C419.738 370.515 420.205 370.95 420.394 371.632C420.839 373.249 419.314 374.869 415.863 376.454C415.006 376.85 413.852 377.378 412.235 377.632C411.473 377.752 410.788 377.781 410.201 377.797C410.188 378.106 410.109 378.441 409.902 378.785C409.296 379.8 408.034 380.283 406.133 380.167C404.041 380.067 402.318 379.703 400.798 379.384C399.471 379.107 398.328 378.872 397.43 378.927C395.765 379.049 394.482 380.264 392.977 381.838L389.218 385.842V385.842Z" fill="#3B6A46"/>
<path id="Vector_30" d="M393.022 346.13L386.15 348.544L385.518 348.342C382.596 347.407 379.948 347.208 377.645 347.748C377.279 347.834 376.917 347.937 376.549 348.041C375.09 348.457 373.277 348.973 370.886 348.612C369.552 348.408 366.394 347.694 366.142 345.547C366.067 344.971 366.226 344.483 366.463 344.086C366.367 344.059 366.271 344.03 366.168 344C364.906 343.614 364.298 343.215 363.712 342.83C363.262 342.535 362.797 342.23 361.788 341.818C361.345 341.638 360.963 341.506 360.643 341.394C359.672 341.055 358.497 340.59 358.16 339.356C357.85 338.025 358.845 337.051 359.503 336.406C360.677 335.255 361.586 334.643 362.189 334.238C362.41 334.09 362.658 333.923 362.728 333.851C363.29 333.264 361.66 329.973 361.054 328.731C359.682 325.944 358.495 323.532 360.213 322.011C361.441 320.922 363.508 321.019 366.522 322.313C367.46 322.717 368.225 323.202 368.842 323.647C369.011 323.115 369.354 322.594 370.031 322.254C371.634 321.451 373.74 322.385 376.298 325.025C376.936 325.68 377.789 326.563 378.469 327.924C378.789 328.565 378.994 329.162 379.16 329.675C379.491 329.607 379.867 329.593 380.285 329.687C381.515 329.964 382.348 330.954 382.708 332.659C383.132 334.529 383.183 336.14 383.23 337.56C383.273 338.8 383.313 339.868 383.599 340.645C384.151 342.081 385.765 342.904 387.819 343.832L393.022 346.13L393.022 346.13Z" fill="#3B6A46"/>
<path id="Vector_31" d="M389.218 326.48L388.398 319.81L388.773 319.305C390.506 316.967 391.39 314.683 391.4 312.516C391.402 312.171 391.385 311.826 391.367 311.475C391.296 310.084 391.208 308.355 392.197 306.339C392.752 305.215 394.311 302.612 396.654 302.934C397.285 303.015 397.762 303.279 398.124 303.588C398.177 303.511 398.232 303.434 398.29 303.35C399.02 302.335 399.598 301.901 400.155 301.482C400.582 301.16 401.024 300.828 401.717 300.042C402.021 299.698 402.258 299.395 402.457 299.141C403.063 298.371 403.855 297.453 405.251 297.469C406.743 297.534 407.524 298.658 408.041 299.402C408.966 300.728 409.384 301.685 409.662 302.319C409.763 302.551 409.877 302.812 409.936 302.893C410.416 303.537 414.324 302.934 415.796 302.715C419.102 302.213 421.963 301.778 423.141 303.678C423.986 305.038 423.359 306.835 421.221 309.163C420.554 309.888 419.846 310.438 419.217 310.87C419.738 311.153 420.205 311.588 420.394 312.271C420.839 313.888 419.314 315.508 415.863 317.092C415.006 317.488 413.852 318.016 412.235 318.271C411.473 318.39 410.788 318.419 410.201 318.435C410.188 318.744 410.109 319.079 409.902 319.424C409.296 320.438 408.034 320.921 406.133 320.805C404.041 320.706 402.318 320.342 400.798 320.023C399.471 319.746 398.328 319.511 397.43 319.565C395.765 319.688 394.482 320.902 392.977 322.477L389.218 326.48V326.48Z" fill="#3B6A46"/>
<path id="Vector_32" d="M369.197 306.1C369.048 306.1 368.898 306.097 368.746 306.087C365.664 305.936 362.81 304.255 360.262 301.092C359.067 299.604 358.456 297.907 357.237 294.522C357.048 294.001 356.129 291.353 355.57 287.711C355.205 285.331 355.25 284.336 355.768 283.456C356.343 282.477 357.272 281.795 358.318 281.334C358.272 281.018 358.309 280.693 358.46 280.362C359.076 278.986 360.716 279.167 361.603 279.254C362.052 279.305 362.612 279.373 363.217 279.344C364.167 279.302 364.678 279.044 365.452 278.658C366.193 278.287 367.113 277.827 368.479 277.572C371.172 277.06 373.429 277.756 374.173 277.985C378.087 279.173 380.017 281.946 382.25 285.157C382.696 285.801 384.224 288.146 385.233 291.36C385.961 293.679 385.859 294.709 385.64 295.476C385.194 297.051 384.143 297.952 381.473 299.943C378.684 302.026 377.285 303.07 376.083 303.704C373.286 305.176 371.529 306.1 369.197 306.1V306.1Z" fill="#3B6A46"/>
</g>
</g>
<defs>
<clipPath id="clip0_0_1">
<rect width="491" height="458" fill="white"/>
</clipPath>
</defs>
</svg>
